# xmcd
#
# Track frame offsets:
#	150
#	13523
#	29795
#	43988
#	55844
#	71998
#	84321
#	99944
#	111195
#	122824
#	133732
#	144598
#	157814
#	173938
#	192407
#	202753
#	219256
#	232391
#	255229
#	272488
#
# Disc length: 3797 seconds
#
# Revision: 3
# Processed by: cddbd v1.5.2PL0 Copyright (c) Steve Scherf et al.
# Submitted via: EZCDAudioConverter 2.1.7.1
#
DISCID=200ed314
DTITLE=V/A - Songs In The Key Of Z
DYEAR=2000
DGENRE=
TTITLE0=The Shaggs - Philosophy Of The World
TTITLE1=Daniel Johnston - Walking The Cow
TTITLE2=Lucia Pamela - Walking On The Moon
TTITLE3=Peter Grudzien - Star Spangled Banner Waving Somewhere
TTITLE4=Jack Mudurian - Downloading The Repertoire [Excerpt]
TTITLE5=Shooby Taylor, The Human Horn - Stout-Hearted Men
TTITLE6=B. J. Snowden - In Canada
TTITLE7=Eilert Pilarm - Jailhouse Rock
TTITLE8=Song-Poem - Virgin Child Of The Universe
TTITLE9=Wesley Willis - Rock N' Roll McDonald's
TTITLE10=Joe Meek - Telstar [Demo]
TTITLE11=Sri Darwin Gross - At The Grass Roots
TTITLE12=Congress-Woman Malinda Jackson Parker - Cousin Mosquito #1
TTITLE13=Luie Luie - El Touchy
TTITLE14=Legendary Stardust Cowboy - Standing In A Trash Can (Thinking About Y
TTITLE14=ou)
TTITLE15=Captain Beefheart and The Magic Band - Vampire Suite
TTITLE16=Arcesia - Butterfly Mind
TTITLE17=Jandek - They Told Me I Was A Fool
TTITLE18="Dusty Roads" Rowe - Baby, Your Love's In Town
TTITLE19=Tiny Tim with Miss Sue - True Love
EXTD=
EXTT0=
EXTT1=
EXTT2=
EXTT3=
EXTT4=
EXTT5=
EXTT6=
EXTT7=
EXTT8=
EXTT9=
EXTT10=
EXTT11=
EXTT12=
EXTT13=
EXTT14=
EXTT15=
EXTT16=
EXTT17=
EXTT18=
EXTT19=
PLAYORDER=
